<svg xmlns="http://www.w3.org/2000/svg" width="16.068" height="21.768" viewBox="0 0 16.068 21.768">
  <g id="bag" transform="translate(-28.121)">
    <g id="Group_5129" data-name="Group 5129" transform="translate(28.121)">
      <path id="Path_1038" data-name="Path 1038" d="M41.826,6.026h-.8V4.869a4.869,4.869,0,0,0-9.739,0V6.026h-.8a2.366,2.366,0,0,0-2.363,2.363V19.4a2.366,2.366,0,0,0,2.363,2.363H41.826A2.366,2.366,0,0,0,44.189,19.4V8.389A2.366,2.366,0,0,0,41.826,6.026Zm-9-1.156a3.327,3.327,0,0,1,6.655,0V6.026H32.828ZM42.648,19.4a.822.822,0,0,1-.822.822H30.484a.822.822,0,0,1-.822-.822V8.389a.822.822,0,0,1,.822-.822h.8V8.649a1.179,1.179,0,1,0,1.542,0V7.567h6.655V8.649a1.179,1.179,0,1,0,1.542,0V7.567h.8a.822.822,0,0,1,.822.822V19.4Z" transform="translate(-28.121)" fill="#fff"/>
    </g>
  </g>
</svg>
