<svg xmlns="http://www.w3.org/2000/svg" width="15.452" height="15.446" viewBox="0 0 15.452 15.446">
    <g id="filter" transform="translate(0 -0.103)">
        <g id="Group_5256" data-name="Group 5256" transform="translate(0 0.103)">
            <path id="Path_1060" data-name="Path 1060" d="M14.848.1H.6a.6.6,0,0,0-.6.6A10.573,10.573,0,0,0,2.178,7.15,9.956,9.956,0,0,0,5.613,9.8v3.665a.6.6,0,0,0,.338.542l3.018,1.479a.6.6,0,0,0,.869-.542V12.457a.6.6,0,1,0-1.207,0v1.52L6.821,13.09V9.422a.6.6,0,0,0-.352-.548A9.062,9.062,0,0,1,3.156,6.443,9.5,9.5,0,0,1,1.225,1.31h13A9.5,9.5,0,0,1,12.3,6.443,8.339,8.339,0,0,1,9,8.882.6.6,0,0,0,9.466,10,9.535,9.535,0,0,0,13.274,7.15,10.573,10.573,0,0,0,15.452.707.6.6,0,0,0,14.848.1Z" transform="translate(0 -0.103)" fill="#132229"/>
        </g>
    </g>
</svg>
