<svg xmlns="http://www.w3.org/2000/svg" width="27.07" height="16.858" viewBox="0 0 27.07 16.858">
  <g id="vegan" transform="translate(0 -96.567)">
    <g id="Group_5128" data-name="Group 5128" transform="translate(0 96.567)">
      <path id="Path_1037" data-name="Path 1037" d="M27.033,102.343a.825.825,0,0,0-.743-.743c-.221-.021-5.438-.481-8.476,2.557a7.742,7.742,0,0,0-1.523,2.21,12.7,12.7,0,0,0-3.181-6.052,13.7,13.7,0,0,0-7.859-3.528,20.639,20.639,0,0,0-4.458-.169.825.825,0,0,0-.743.743,20.647,20.647,0,0,0,.169,4.458,13.7,13.7,0,0,0,3.528,7.859,13.7,13.7,0,0,0,7.859,3.528,22.057,22.057,0,0,0,3.1.22c.72,0,1.77-.014,2.253-.014,1.69,0,5.226-.3,7.52-2.593C27.514,107.78,27.054,102.563,27.033,102.343Zm-18.02,2.07a.825.825,0,1,0-1.167,1.167l6.182,6.182c-2.382-.08-6.491-.629-9.113-3.251-3.125-3.125-3.3-8.389-3.255-10.285,1.9-.049,7.152.124,10.284,3.256,2.614,2.614,3.165,6.726,3.248,9.11Zm14.3,5.238a8.465,8.465,0,0,1-5.216,2.056l3.636-3.636a.825.825,0,0,0-1.167-1.167l-3.639,3.639a8.446,8.446,0,0,1,2.059-5.22c1.893-1.893,5.03-2.112,6.434-2.107C25.42,104.621,25.2,107.758,23.309,109.651Z" transform="translate(0 -96.567)" fill="#fff"/>
    </g>
  </g>
</svg>
