<svg xmlns="http://www.w3.org/2000/svg" width="92" height="92" viewBox="0 0 92 92">
  <g id="Group_8695" data-name="Group 8695" transform="translate(-32 -108)">
    <rect id="Rectangle_335" data-name="Rectangle 335" width="92" height="92" rx="17" transform="translate(32 108)" fill="#eee"/>
    <g id="Group_3" data-name="Group 3" transform="translate(-39.798 -231)">
      <g id="Group_2" data-name="Group 2" transform="translate(94 380)">
        <path id="Path_1" data-name="Path 1" d="M26.768,74.942a3.234,3.234,0,0,1,.769,2.271V81.43H24.685V77.572a.962.962,0,0,0-.277-.729,1.185,1.185,0,0,0-1.492,0,.966.966,0,0,0-.271.729v3.855H19.794V77.572a.962.962,0,0,0-.277-.729,1.185,1.185,0,0,0-1.492,0,.966.966,0,0,0-.271.729v3.855H14.9V74.153h1.881a.98.98,0,0,1,.98.98h0a2.3,2.3,0,0,1,.845-.749,2.657,2.657,0,0,1,1.257-.284,2.784,2.784,0,0,1,1.393.343,2.572,2.572,0,0,1,.967.96,3.258,3.258,0,0,1,1.02-.934,2.632,2.632,0,0,1,1.366-.366A2.771,2.771,0,0,1,26.768,74.942Z" transform="translate(-14.9 -71.886)" fill="#a1a1a1"/>
        <path id="Path_2" data-name="Path 2" d="M430.866,77.134h-4.577a1.174,1.174,0,0,0,.244.743.751.751,0,0,0,.541.2.7.7,0,0,0,.67-.426h3.03a3.159,3.159,0,0,1-.65,1.386,3.505,3.505,0,0,1-1.251.967,3.826,3.826,0,0,1-1.657.353,4.024,4.024,0,0,1-1.927-.452,3.215,3.215,0,0,1-1.317-1.3,4.39,4.39,0,0,1,0-3.96,3.216,3.216,0,0,1,1.317-1.3,4.362,4.362,0,0,1,3.855-.007,3.213,3.213,0,0,1,1.317,1.271,3.867,3.867,0,0,1,.472,1.947A2.945,2.945,0,0,1,430.866,77.134Zm-2.838-1.175a.771.771,0,0,0-.231-.614.863.863,0,0,0-.581-.2.834.834,0,0,0-.9.812h1.716Z" transform="translate(-410.015 -70.725)" fill="#a1a1a1"/>
        <path id="Path_3" data-name="Path 3" d="M980.865,7v9.541H978V7Z" transform="translate(-946.216 -7)" fill="#a1a1a1"/>
        <path id="Path_4" data-name="Path 4" d="M666.37,28.628,663.043,19.5h-3.3L656.4,28.628h2.9l-.564-1.37h.277a.382.382,0,0,1,.317-.188.558.558,0,0,1,.551-.647.532.532,0,0,1,.3.092.456.456,0,0,1,.386-.132.358.358,0,0,1,.333-.257.35.35,0,0,1,.323.195.554.554,0,0,1,.452.05.374.374,0,0,1,.277-.122.38.38,0,0,1,.366.274.461.461,0,0,1,.3.1.356.356,0,0,1,.617.32.555.555,0,0,1,.515.317h.29l-.564,1.37Zm-4.525-4.122a.633.633,0,0,0-.254-.512c-.271-.195-.182-.653-.182-.653a1.57,1.57,0,0,0-.172,1.165s-.158-.218-.307-.241-.234-.234-.234-.234a.5.5,0,0,0,.234.413c-1.165-.541-.188-1.346-.188-1.346-.112.429.195.535.195.535a.943.943,0,0,1,.347-1.188.464.464,0,0,0,.271-.594.682.682,0,0,1,.188.8c-.172.558.135.647.135.647a.439.439,0,0,1-.089-.317.535.535,0,0,1,.241-.389c-.129.452.389.677.389,1.214A.8.8,0,0,1,661.845,24.506Z" transform="translate(-635.229 -19.087)" fill="#a1a1a1"/>
      </g>
      <g id="Group_1" data-name="Group 1" transform="translate(129.837 384.834)">
        <path id="Path_5" data-name="Path 5" d="M1111.344,153.58a3.006,3.006,0,0,0-2.165,1.175,1.1,1.1,0,0,0,.026-.231,1.26,1.26,0,0,0-.2-.716.586.586,0,0,0-.554-.277q-.193.015-.723.515c-.5.465-.769.713-.812.749l.31.35a1.174,1.174,0,0,1,.426-.244c.145,0,.2.086.182.257a10.109,10.109,0,0,1-.149,1.155,1.925,1.925,0,0,1-1.165.716c-.327,0-.479-.2-.452-.607.01-.112.063-.4.168-.878a6.572,6.572,0,0,0,.155-1.007q.025-1.045-.954-1.069c-.8-.026-1.327.422-1.587,1.34a1.164,1.164,0,0,1,.432-.089.379.379,0,0,1,.314.149.491.491,0,0,1,.106.343,1.756,1.756,0,0,1-.515,1.076,1.335,1.335,0,0,1-.891.574c-.182,0-.267-.155-.261-.465a6.136,6.136,0,0,1,.135-.934,7.888,7.888,0,0,0,.149-1.013.964.964,0,0,0-.215-.69.7.7,0,0,0-.637-.224,1.828,1.828,0,0,0-.838.515c-.274.251-.551.5-.825.749l.3.35a1.383,1.383,0,0,1,.439-.271c.162,0,.241.112.231.337a7.61,7.61,0,0,1-.208.851,5.33,5.33,0,0,0-.218,1.135,1.21,1.21,0,0,0,.191.812.967.967,0,0,0,.9.3,3.125,3.125,0,0,0,1.541-.594,5.5,5.5,0,0,0,.644-.515,1.188,1.188,0,0,0-.04.3.929.929,0,0,0,.238.657.753.753,0,0,0,.574.257,2.627,2.627,0,0,0,1.729-.749,5.124,5.124,0,0,0,.383-.373q-.044.238-.1.5a21.7,21.7,0,0,0-.439,2.769c-.026.832.313,1.257,1.02,1.284.776.026,1.327-.422,1.663-1.34a.885.885,0,0,1-.4.1.423.423,0,0,1-.31-.195,1.537,1.537,0,0,1-.231-.974c.01-.389.04-.785.089-1.191a1.758,1.758,0,0,0,.865.076,3.038,3.038,0,0,0,2.2-1.317,3.7,3.7,0,0,0,.683-1.779,1.915,1.915,0,0,0,.013-.244C1112.555,154.062,1112.153,153.6,1111.344,153.58Zm-.891,2.838a1.344,1.344,0,0,1-.98.723.338.338,0,0,1-.323-.122.58.58,0,0,1-.079-.353,2.292,2.292,0,0,1,.465-1.1c.31-.446.614-.67.914-.67.274,0,.409.165.4.492A2.043,2.043,0,0,1,1110.453,156.418Z" transform="translate(-1100.8 -153.467)" fill="#a1a1a1"/>
      </g>
    </g>
  </g>
</svg>
