<svg xmlns="http://www.w3.org/2000/svg" width="21.002" height="21.003" viewBox="0 0 21.002 21.003">
  <path id="logout" d="M8.86,21H3.282A3.285,3.285,0,0,1,0,17.721V3.282A3.285,3.285,0,0,1,3.282,0H8.86a3.285,3.285,0,0,1,3.282,3.282v2.3a.82.82,0,1,1-1.641,0v-2.3A1.643,1.643,0,0,0,8.86,1.641H3.282A1.643,1.643,0,0,0,1.641,3.282V17.721a1.643,1.643,0,0,0,1.641,1.641H8.86A1.643,1.643,0,0,0,10.5,17.721V15.465a.82.82,0,1,1,1.641,0v2.256A3.285,3.285,0,0,1,8.86,21Zm7.658-5.021,3.759-3.737a2.458,2.458,0,0,0,0-3.487L16.518,5.022a1.6,1.6,0,0,0-2.735,1.132V9.681H4.1a.82.82,0,0,0,0,1.641h9.681a1.643,1.643,0,0,0,1.641-1.641V6.247l3.7,3.675a.817.817,0,0,1,0,1.159l-3.7,3.675v-.809a.82.82,0,0,0-1.641,0v.9a1.6,1.6,0,0,0,2.735,1.132Zm0,0" fill="#132229"/>
</svg>
