<svg xmlns="http://www.w3.org/2000/svg" width="14.242" height="19.274" viewBox="0 0 14.242 19.274">
  <path id="google-documents" d="M37.318,0H29.684A1.055,1.055,0,0,0,28.63,1.054V18.219a1.055,1.055,0,0,0,1.054,1.054H41.819a1.055,1.055,0,0,0,1.054-1.054V5.2a1.048,1.048,0,0,0-.309-.745L38.052.3A1.047,1.047,0,0,0,37.318,0Zm4.237,17.956H29.948V1.318h6.305V4.853a1.417,1.417,0,0,0,1.415,1.416h3.887ZM37.668,4.951a.1.1,0,0,1-.1-.1V2.078l3.072,2.872H37.668ZM32.221,7.786h7.16V9.1h-7.16Zm0,2.2h7.16V11.3h-7.16Zm0,2.2h7.16V13.5h-7.16Zm0,2.2h4.085v1.318H32.221Z" transform="translate(-28.631)" fill="#132229"/>
</svg>
