<svg id="question" xmlns="http://www.w3.org/2000/svg" width="12.797" height="21" viewBox="0 0 12.797 21">
  <path id="Path_3493" data-name="Path 3493" d="M198.461,392a2.461,2.461,0,1,0,2.461,2.461A2.464,2.464,0,0,0,198.461,392Zm0,3.691a1.23,1.23,0,1,1,1.23-1.23A1.232,1.232,0,0,1,198.461,395.691Z" transform="translate(-192.063 -375.922)" fill="#132229"/>
  <path id="Path_3494" data-name="Path 3494" d="M106.4,0A6.406,6.406,0,0,0,100,6.4v.615h4.922V6.4a1.477,1.477,0,1,1,2.431,1.127l-3.415,2.9v4.419h4.922V12.7l1.681-1.429A6.4,6.4,0,0,0,106.4,0Zm3.345,10.338-2.114,1.8v1.482h-2.461V11l2.981-2.535a2.707,2.707,0,1,0-4.387-2.68h-2.5a5.168,5.168,0,1,1,8.476,4.555Z" transform="translate(-100)" fill="#132229"/>
</svg>
