<svg xmlns="http://www.w3.org/2000/svg" width="18.82" height="21" viewBox="0 0 18.82 21">
  <g id="writing" transform="translate(-26.57)">
    <g id="Group_8583" data-name="Group 8583" transform="translate(26.57)">
      <g id="Group_8582" data-name="Group 8582" transform="translate(0)">
        <path id="Path_3590" data-name="Path 3590" d="M116.549,200.82a.82.82,0,0,0-.82-.82h-8.449a.82.82,0,1,0,0,1.641h8.449A.82.82,0,0,0,116.549,200.82Z" transform="translate(-103.182 -191.797)" fill="#132229"/>
        <path id="Path_3591" data-name="Path 3591" d="M107.279,280a.82.82,0,1,0,0,1.641h5.131a.82.82,0,1,0,0-1.641Z" transform="translate(-103.182 -268.516)" fill="#132229"/>
        <path id="Path_3592" data-name="Path 3592" d="M32.595,19.359H29.851a1.642,1.642,0,0,1-1.641-1.641V3.281a1.642,1.642,0,0,1,1.641-1.641H39.936a1.642,1.642,0,0,1,1.641,1.641V8.326a.82.82,0,1,0,1.641,0V3.281A3.285,3.285,0,0,0,39.936,0H29.851A3.285,3.285,0,0,0,26.57,3.281V17.719A3.285,3.285,0,0,0,29.851,21h2.743a.82.82,0,0,0,0-1.641Z" transform="translate(-26.57)" fill="#132229"/>
        <path id="Path_3593" data-name="Path 3593" d="M252.662,272.744a2.463,2.463,0,0,0-3.48,0l-4.5,4.494a.821.821,0,0,0-.206.342l-.981,3.229a.82.82,0,0,0,1,1.029l3.311-.917a.82.82,0,0,0,.361-.21l4.494-4.486A2.464,2.464,0,0,0,252.662,272.744Zm-5.5,6.652-1.666.461.487-1.6,3.039-3.032,1.16,1.16Zm4.341-4.333-.159.159-1.16-1.16.158-.158a.82.82,0,0,1,1.161,1.16Z" transform="translate(-234.561 -260.867)" fill="#132229"/>
        <path id="Path_3594" data-name="Path 3594" d="M115.728,120h-8.449a.82.82,0,1,0,0,1.641h8.449a.82.82,0,1,0,0-1.641Z" transform="translate(-103.182 -115.078)" fill="#132229"/>
      </g>
    </g>
  </g>
</svg>
