<svg id="wallet" xmlns="http://www.w3.org/2000/svg" width="21" height="21" viewBox="0 0 21 21">
  <g id="Group_8187" data-name="Group 8187">
    <path id="Path_3485" data-name="Path 3485" d="M16.611,10.541a2.461,2.461,0,1,0,0,4.922H20.1l.041,0,.041,0a.82.82,0,0,0,.82-.82V8.2a3.278,3.278,0,0,0-1.36-2.657L16.849.968A.82.82,0,0,0,15.716.7L13.658,1.974,12.73.4A.82.82,0,0,0,11.6.12l-7.9,4.8H2.461a.821.821,0,0,1-.82-.8.821.821,0,0,1,.82-.8H3.978a.82.82,0,0,0,0-1.641H2.461A2.465,2.465,0,0,0,.067,3.573.817.817,0,0,0,0,3.9V17.719A3.285,3.285,0,0,0,3.281,21H17.718a3.277,3.277,0,0,0,3.113-2.242.82.82,0,0,0-1.556-.519,1.639,1.639,0,0,1-1.557,1.121H3.281a1.642,1.642,0,0,1-1.641-1.641V6.422a2.449,2.449,0,0,0,.82.141H17.718A1.642,1.642,0,0,1,19.359,8.2v2.338Zm2.748,3.281H16.611a.82.82,0,1,1,0-1.641h2.748Zm-12.5-8.9L11.74,1.953l.873,1.478a.822.822,0,0,0,.06.119.831.831,0,0,0,.058.081l.763,1.291Zm8.546,0-.907-1.535,1.385-.859,1.46,2.394Z" transform="translate(0 0)" fill="#132229"/>
  </g>
</svg>
