<svg xmlns="http://www.w3.org/2000/svg" width="21.002" height="21" viewBox="0 0 21.002 21">
  <path id="translate" d="M19.033,13.562H16.777v-.82a.82.82,0,0,0-1.641,0v.82H12.8a.82.82,0,0,0,0,1.641h.518A8.818,8.818,0,0,0,14.8,18.36a5.3,5.3,0,0,1-1.916,1.063.82.82,0,1,0,.48,1.569,6.922,6.922,0,0,0,2.549-1.425,6.922,6.922,0,0,0,2.549,1.425.82.82,0,1,0,.48-1.569,5.3,5.3,0,0,1-1.916-1.063A8.819,8.819,0,0,0,18.515,15.2h.518a.82.82,0,0,0,0-1.641Zm-2.96,3.288c-.049.079-.1.161-.157.244a7.308,7.308,0,0,1-.9-1.892h1.805A7.172,7.172,0,0,1,16.073,16.851ZM21,4.291a.82.82,0,0,0-.82-.82H15.669V1.324a.823.823,0,0,0-1.3-.665l-4.1,2.961a.824.824,0,0,0,.008,1.336l4.1,2.891a.82.82,0,0,0,1.293-.671V5.112h3.687l0,5.21a.82.82,0,0,0,.82.82h0a.82.82,0,0,0,.82-.821Zm-6.968,1.3L12.16,4.277l1.869-1.349Zm-3.3,10.626-4.1-2.891A.82.82,0,0,0,5.333,14v2.025H1.645l0-5.21a.82.82,0,0,0-.82-.82h0a.82.82,0,0,0-.82.821l.005,6.03a.82.82,0,0,0,.82.82H5.333v2.187a.823.823,0,0,0,1.3.665l4.1-2.961a.824.824,0,0,0-.008-1.336ZM6.973,18.247V15.581L8.842,16.9ZM3,8.262a.82.82,0,0,0,1.052-.49l.311-.855H7.04l.311.855a.82.82,0,0,0,1.542-.562L6.473.566a.822.822,0,0,0-1.542,0L2.511,7.211A.82.82,0,0,0,3,8.262ZM5.7,3.244l.74,2.033H4.961Z" transform="translate(0 -0.029)" fill="#132229"/>
</svg>
