<svg xmlns="http://www.w3.org/2000/svg" width="20.24" height="21.59" viewBox="0 0 20.24 21.59">
  <g id="coffee-shop" transform="translate(-16)">
    <g id="Group_8679" data-name="Group 8679" transform="translate(16)">
      <g id="Group_8678" data-name="Group 8678" transform="translate(0)">
        <path id="Path_3617" data-name="Path 3617" d="M36.24,6.991a.637.637,0,0,0-.106-.342h0l0,0L33.71,3.013V.633A.633.633,0,0,0,33.078,0H19.163a.633.633,0,0,0-.633.633V3.013L16.109,6.645l0,0h0A.633.633,0,0,0,16,6.991S16,7,16,7V8.9a2.519,2.519,0,0,0,.633,1.671V20.957a.633.633,0,0,0,.633.633h17.71a.633.633,0,0,0,.633-.633V10.568A2.519,2.519,0,0,0,36.24,8.9V7S36.24,6.994,36.24,6.991ZM19.8,1.265h12.65V2.572H19.8ZM19.5,3.837H32.739l1.687,2.53H17.814Zm11.679,3.8V8.9a1.265,1.265,0,0,1-2.53,0V7.632Zm-3.8,0V8.9a1.265,1.265,0,0,1-2.53,0V7.632Zm-3.8,0V8.9a1.265,1.265,0,0,1-2.53,0V7.632ZM17.265,8.9V7.632H19.8V8.9a1.265,1.265,0,0,1-2.53,0Zm6.958,7.59H23.59a.633.633,0,0,0,0,1.265h.633v2.572h-3.8v-4.47a1.9,1.9,0,0,1,3.8,0Zm10.12,3.837H25.488v-4.47a3.163,3.163,0,0,0-6.325,0v4.47H17.9V11.347a2.528,2.528,0,0,0,2.53-.779,2.525,2.525,0,0,0,3.8,0,2.525,2.525,0,0,0,3.8,0,2.525,2.525,0,0,0,3.8,0,2.528,2.528,0,0,0,2.53.779ZM34.975,8.9a1.265,1.265,0,0,1-2.53,0V7.632h2.53Z" transform="translate(-16)" fill="#fff"/>
      </g>
    </g>
    <g id="Group_8681" data-name="Group 8681" transform="translate(26.753 12.692)">
      <g id="Group_8680" data-name="Group 8680" transform="translate(0)">
        <path id="Path_3618" data-name="Path 3618" d="M276.693,301h-5.06a.633.633,0,0,0-.633.633v3.8a.633.633,0,0,0,.633.633h5.06a.633.633,0,0,0,.633-.633v-3.8A.633.633,0,0,0,276.693,301Zm-.633,3.8h-3.8v-2.53h3.8Z" transform="translate(-271 -301)" fill="#fff"/>
      </g>
    </g>
  </g>
</svg>
