<svg id="coins" xmlns="http://www.w3.org/2000/svg" width="20.816" height="19.514" viewBox="0 0 20.816 19.514">
  <g id="Group_8188" data-name="Group 8188">
    <path id="Path_3486" data-name="Path 3486" d="M18.991,23.893a10.8,10.8,0,0,0-3.664-.575,9.932,9.932,0,0,0-4.35.859V18.439c0-.538-.317-1.3-1.825-1.865A10.8,10.8,0,0,0,5.488,16C2.943,16,0,16.756,0,18.439V33.075c0,.539.317,1.3,1.825,1.865a10.8,10.8,0,0,0,3.664.575c1.5,0,3.769-.284,4.887-1.257.978.829,2.973,1.257,4.951,1.257,2.566,0,5.488-.764,5.488-2.439V25.757C20.815,25.219,20.5,24.458,18.991,23.893ZM9.757,33.075c0,.358-1.494,1.228-4.269,1.228S1.22,33.436,1.22,33.075v-.843a9.828,9.828,0,0,0,4.269.843,9.828,9.828,0,0,0,4.269-.843Zm0-2.439c0,.358-1.494,1.228-4.269,1.228S1.22,31,1.22,30.636v-.843a9.828,9.828,0,0,0,4.269.843,9.828,9.828,0,0,0,4.269-.843Zm0-2.439c0,.358-1.494,1.228-4.269,1.228S1.22,28.558,1.22,28.2v-.843a9.828,9.828,0,0,0,4.269.843,9.828,9.828,0,0,0,4.269-.843Zm0-2.439c0,.358-1.494,1.228-4.269,1.228S1.22,26.118,1.22,25.757v-.843a9.828,9.828,0,0,0,4.269.843,9.829,9.829,0,0,0,4.269-.843Zm0-2.439c0,.358-1.494,1.228-4.269,1.228S1.22,23.679,1.22,23.318v-.843a9.828,9.828,0,0,0,4.269.843,9.828,9.828,0,0,0,4.269-.843Zm0-2.439c0,.358-1.494,1.228-4.269,1.228S1.22,21.24,1.22,20.879v-.843a9.828,9.828,0,0,0,4.269.843,9.828,9.828,0,0,0,4.269-.843ZM5.488,19.667c-2.763,0-4.269-.867-4.269-1.228s1.494-1.228,4.269-1.228,4.269.867,4.269,1.228S8.263,19.667,5.488,19.667ZM19.6,33.075c0,.358-1.494,1.228-4.269,1.228-2.721,0-4.35-.859-4.35-1.228v-.859a9.932,9.932,0,0,0,4.35.859,9.828,9.828,0,0,0,4.269-.843Zm0-2.439c0,.358-1.494,1.228-4.269,1.228-2.721,0-4.35-.859-4.35-1.228v-.859a9.932,9.932,0,0,0,4.35.859,9.828,9.828,0,0,0,4.269-.843Zm0-2.439c0,.358-1.494,1.228-4.269,1.228-2.721,0-4.35-.859-4.35-1.228v-.859a9.932,9.932,0,0,0,4.35.859,9.828,9.828,0,0,0,4.269-.843Zm-4.269-1.212c-2.755,0-4.35-.87-4.35-1.228s1.549-1.228,4.35-1.228c2.763,0,4.269.867,4.269,1.228S18.1,26.985,15.327,26.985Z" transform="translate(0 -16)" fill="#132229"/>
  </g>
</svg>
